<svg width="1000" height="919" viewBox="0 0 1000 919" fill="none" xmlns="http://www.w3.org/2000/svg">
<path d="M176.252 249.883C117.659 277.29 74.28 350.82 84.7746 404.691C94.3964 454.078 144.042 459.953 155.142 515.871C167.809 579.681 110.325 608.136 125.588 645.346C148.044 700.098 277.008 649.495 468.979 712.899C512.648 727.322 533.443 739.012 577.345 742.453C650.133 748.158 667.906 721.895 765.929 708.677C868.378 694.863 913.412 714.86 930.589 686.16C945.906 660.565 913.516 638.942 909.478 566.535C906.164 507.106 926.684 498.348 924.959 439.874C924.398 420.858 922.577 359.11 881.331 303.362C844.364 253.396 782.013 216.745 718.079 214.699C624.827 211.716 614.283 285.105 515.421 307.584C366.653 341.411 284.165 199.405 176.252 249.883Z" fill="#CCE3FD"/>
<path d="M735.865 712.485C664.193 691.414 633.788 552.145 680.213 483.153C698.4 456.125 718.694 454.274 742.048 414.094C770.385 365.342 754.594 343.836 780.735 308.697C803.728 277.79 853.904 243.404 897.723 257.965C938.661 271.57 958.442 322.711 953.075 360.695C947.434 400.62 916.854 405.888 907.76 449.681C898.769 492.984 924.014 510.242 925.062 546.871C927.37 627.501 810.488 734.424 735.865 712.485Z" fill="#E6F1FE"/>
<path opacity="0.3" d="M875.782 298.429C865.016 329.769 853.997 360.973 842.95 392.147L826.492 438.935L818.298 462.333C815.612 470.146 812.953 477.968 810.206 485.761C807.441 493.548 804.865 501.395 802.224 509.221L798.279 520.967C796.917 524.868 795.655 528.798 794.358 532.718L786.614 556.253C784.182 564.141 781.614 571.99 779.12 579.863C769.313 611.401 759.935 643.055 751.773 675.141L749.728 674.744C751.009 666.552 752.391 658.365 753.801 650.174C754.431 646.059 755.368 642.02 756.215 637.956L758.796 625.77L760.105 619.678C760.545 617.648 760.989 615.619 761.505 613.61L764.483 601.52C766.467 593.46 768.438 585.386 770.716 577.409C772.944 569.416 775.098 561.398 777.389 553.419L784.602 529.597C785.816 525.63 786.976 521.645 788.269 517.705L792.136 505.88C794.726 498 797.252 490.097 799.965 482.262C810.499 450.804 822.183 419.758 834.364 388.924C840.454 373.505 846.81 358.193 853.347 342.958C859.945 327.746 866.611 312.57 873.858 297.632L875.782 298.429Z" fill="#001731"/>
<path d="M849.328 336.409C840.175 315.465 840.906 289.427 840.914 289.167L841.956 289.2C841.948 289.459 841.225 315.268 850.282 335.991L849.328 336.409Z" fill="#CCE3FD"/>
<path d="M835.913 357.895C819.815 330.867 821.379 300.909 821.397 300.61L822.437 300.671C822.42 300.967 820.879 330.618 836.808 357.362L835.913 357.895Z" fill="#CCE3FD"/>
<path d="M821.358 385.721C798.962 357.042 803.331 320.42 803.378 320.053L804.411 320.186C804.365 320.548 800.057 356.751 822.179 385.079L821.358 385.721Z" fill="#CCE3FD"/>
<path d="M812.867 414.314C787.831 390.362 788.191 351.941 788.197 351.556L789.239 351.573C789.232 351.955 788.886 389.929 813.588 413.561L812.867 414.314Z" fill="#CCE3FD"/>
<path d="M803.926 439.266C786.766 424.986 779.228 398.217 779.154 397.949L780.159 397.671C780.232 397.937 787.687 424.398 804.593 438.466L803.926 439.266Z" fill="#CCE3FD"/>
<path d="M791.68 467.64C767.95 447.54 764.295 427.761 764.261 427.563L765.287 427.385C765.321 427.58 768.935 447.008 792.354 466.844L791.68 467.64Z" fill="#CCE3FD"/>
<path d="M781.133 504.809C754.863 486.005 750.125 448.854 750.08 448.481L751.114 448.357C751.158 448.725 755.848 485.429 781.74 503.961L781.133 504.809Z" fill="#CCE3FD"/>
<path d="M766.251 538.726C733.869 516.695 730.582 473.725 730.553 473.294L731.592 473.223C731.621 473.649 734.881 516.124 766.837 537.865L766.251 538.726Z" fill="#CCE3FD"/>
<path d="M755.555 578.573C710.732 540.758 709.804 491.698 709.8 491.206L710.841 491.197C710.845 491.684 711.783 540.283 756.226 577.778L755.555 578.573Z" fill="#CCE3FD"/>
<path d="M740.099 622.719C689.522 588.846 692.885 521.218 692.925 520.54L693.965 520.601C693.925 521.274 690.603 588.317 740.679 621.853L740.099 622.719Z" fill="#CCE3FD"/>
<path d="M727.924 664.506C700.992 647.693 689.804 619.177 685.161 598.216C680.137 575.535 681.485 556.562 681.499 556.374L682.538 556.451C682.482 557.201 677.503 631.801 728.475 663.623L727.924 664.506Z" fill="#CCE3FD"/>
<path d="M359.887 583.724C394.508 551.83 400.381 488.502 378.194 470.502C358.952 454.89 325.357 478.85 311.939 463.28C295.821 444.577 336.04 400.434 319.673 377.964C303.975 356.412 255.651 381.471 239.494 360.3C222.236 337.686 268.127 296.99 252.126 262.789C238.782 234.265 186.806 219.702 147.093 237.437C114.775 251.869 87.7022 288.977 96.1467 314.708C107.673 349.83 177.418 339.516 187.806 373.986C197.393 405.794 144.142 434.937 155.004 462.629C166.695 492.436 237.178 481.081 243.587 505.743C249.218 527.412 197.293 545.748 201.128 567.923C206.199 597.245 308.407 631.149 359.887 583.724Z" fill="#E6F1FE"/>
<path opacity="0.47" d="M173.21 277.788C183.315 303.229 194.14 328.359 205.276 353.35C210.805 365.863 216.553 378.276 222.251 390.714C225.123 396.922 228.077 403.093 230.989 409.282C233.915 415.466 236.806 421.665 239.822 427.807L248.823 446.252C251.87 452.379 254.885 458.521 257.98 464.624L260.289 469.207L262.638 473.77L267.336 482.897L272.052 492.015L276.896 501.068C289.807 525.196 303.137 549.184 318.486 571.887L318.944 571.6C305.473 547.8 293.214 523.39 281.031 498.936L276.469 489.764L271.962 480.563L267.437 471.371L265.175 466.775L262.952 462.159C260.007 455.995 256.982 449.87 253.989 443.73L245.111 425.257L209.605 351.345C197.775 326.698 185.881 302.076 173.704 277.569L173.21 277.788Z" fill="#001731"/>
<path d="M317.557 700.125C342.961 668.291 332.881 620.853 318.298 600.894C269.341 533.888 201.78 540.901 185.175 524.925C167.438 507.861 201.321 467.016 183.134 439.877C167.965 417.243 121.6 411.635 89.9766 432.032C64.2413 448.631 45.9783 483.929 56.5888 504.82C71.0716 533.336 129.354 515.329 142.778 543.438C155.165 569.375 111.321 631.675 179.715 707.525C196.957 726.646 279.781 747.461 317.557 700.125Z" fill="#006FEE"/>
<path opacity="0.47" d="M117.625 463.098C129.617 483.522 142.185 503.586 154.998 523.489C161.375 533.461 167.925 543.319 174.436 553.205C177.71 558.136 181.049 563.023 184.354 567.932C187.671 572.834 190.96 577.755 194.348 582.61L204.474 597.197C207.887 602.035 211.274 606.89 214.724 611.701L217.302 615.316L219.912 618.909L225.132 626.095L230.366 633.271L235.701 640.375C249.919 659.306 264.478 678.064 280.594 695.456L280.947 695.15C266.293 676.573 252.594 657.313 238.955 638.007L233.846 630.765L228.78 623.49L223.7 616.225L221.16 612.593L218.651 608.938C215.321 604.055 211.927 599.216 208.559 594.359L198.534 579.732L158.437 521.204C145.074 501.686 131.66 482.197 118.019 462.845L117.625 463.098Z" fill="#001731"/>
<path d="M810.074 498.665H685.397V739.113H810.074V498.665Z" fill="#338EF7"/>
<path d="M826.773 519.445H679.46V417.032L795.231 411.095L832.576 510.357C834.542 514.596 831.446 519.445 826.773 519.445Z" fill="#004493"/>
<path d="M795.232 412.579L685.397 418.516V406.642L788.032 400.705C792.008 400.705 795.232 403.929 795.232 407.905V412.579Z" fill="#004493"/>
<g opacity="0.89">
<path opacity="0.87" d="M783.275 673.806H712.939C712.688 673.806 712.485 673.603 712.485 673.352V564.425C712.485 564.175 712.688 563.972 712.939 563.972H783.275C783.525 563.972 783.728 564.175 783.728 564.425V673.352C783.728 673.603 783.525 673.806 783.275 673.806Z" fill="#001731"/>
<path d="M745.089 667.869H717.932C717.792 667.869 717.68 667.756 717.68 667.617V570.161C717.68 570.022 717.792 569.909 717.932 569.909H745.089C745.228 569.909 745.341 570.022 745.341 570.161V667.617C745.341 667.756 745.228 667.869 745.089 667.869Z" fill="#004493"/>
<path d="M778.281 667.869H751.125C750.985 667.869 750.873 667.756 750.873 667.617V570.161C750.873 570.022 750.985 569.909 751.125 569.909H778.281C778.421 569.909 778.534 570.022 778.534 570.161V667.617C778.534 667.756 778.421 667.869 778.281 667.869Z" fill="#004493"/>
</g>
<path d="M703.044 465.27H356.616V739.113H703.044V465.27Z" fill="#99C7FB"/>
<path d="M694.847 332.43H356.43L318.937 461.273C318.061 464.284 318.563 467.517 320.315 470.142L324.172 475.918C326.227 478.997 329.742 480.854 333.513 480.854H716.661C721.018 480.854 724.975 478.382 726.79 474.526L730.497 466.65C731.594 464.321 731.808 461.689 731.102 459.22L694.847 332.43Z" fill="#004493"/>
<path d="M695.609 332.43H355.521V326.59C355.521 324.381 357.341 322.581 359.609 322.548L691.395 317.649C693.712 317.615 695.61 319.435 695.61 321.691L695.609 332.43Z" fill="#004493"/>
<path d="M575.375 739.113H467.966V722.173C467.966 721.466 468.539 720.892 469.247 720.892H574.094C574.801 720.892 575.375 721.466 575.375 722.173L575.375 739.113Z" fill="#338EF7"/>
<path d="M558.325 720.892H485.015V579.314C485.015 578.519 485.659 577.875 486.453 577.875H556.887C557.682 577.875 558.326 578.519 558.326 579.314V720.892H558.325Z" fill="#004493"/>
<path opacity="0.64" d="M553.149 568.249H490.191C487.332 568.249 485.015 565.931 485.015 563.072V558.551C485.015 555.831 487.119 553.576 489.832 553.387L552.79 549.014C555.783 548.806 558.325 551.178 558.325 554.178V563.073C558.325 565.931 556.008 568.249 553.149 568.249Z" fill="#001731"/>
<path d="M616.543 504.716H615.847C597.74 504.716 581.889 517.535 581.889 535.641V568.249H616.543V504.716Z" fill="#004493"/>
<path d="M581.889 577.875V673.806C581.889 677.036 585.681 682.045 588.911 682.045H616.543V577.875H581.889Z" fill="#004493"/>
<path d="M626.005 504.716H624.244V568.249H658.898V535.641C658.898 517.535 644.112 504.716 626.005 504.716Z" fill="#004493"/>
<path d="M624.244 682.045H652.941C656.171 682.045 658.899 677.036 658.899 673.806V577.875H624.245L624.244 682.045Z" fill="#004493"/>
<path opacity="0.9" d="M425.672 504.716H424.975C406.869 504.716 391.018 517.535 391.018 535.641V568.249H425.672V504.716Z" fill="#004493"/>
<path opacity="0.9" d="M391.017 577.875V673.806C391.017 677.036 394.809 682.045 398.039 682.045H425.672V577.875H391.017Z" fill="#004493"/>
<path opacity="0.9" d="M435.134 504.716H433.373V568.249H468.027V535.641C468.027 517.535 453.24 504.716 435.134 504.716Z" fill="#004493"/>
<path opacity="0.9" d="M433.372 682.045H462.069C465.299 682.045 468.027 677.036 468.027 673.806V577.875H433.372L433.372 682.045Z" fill="#004493"/>
<path opacity="0.64" d="M450.661 465.671H344.751C342.138 465.671 339.741 464.471 338.176 462.378C336.61 460.285 336.136 457.646 336.875 455.139L367.128 352.462C367.191 352.249 367.414 352.126 367.627 352.19C367.84 352.252 367.961 352.476 367.899 352.688L337.645 455.366C336.979 457.628 337.407 460.009 338.819 461.897C340.231 463.785 342.393 464.868 344.751 464.868H450.661C450.883 464.868 451.062 465.048 451.062 465.27C451.062 465.492 450.883 465.671 450.661 465.671Z" fill="#001731"/>
<path opacity="0.64" d="M511.49 682.446H500.426C496.736 682.446 493.734 679.445 493.734 675.755V593.958C493.734 590.268 496.736 587.266 500.426 587.266H511.49C515.18 587.266 518.182 590.268 518.182 593.958V675.755C518.182 679.445 515.18 682.446 511.49 682.446ZM500.426 588.07C497.179 588.07 494.538 590.711 494.538 593.957V675.754C494.538 679.001 497.18 681.642 500.426 681.642H511.49C514.737 681.642 517.378 679.001 517.378 675.754V593.957C517.378 590.711 514.736 588.07 511.49 588.07H500.426Z" fill="#001731"/>
<path opacity="0.64" d="M542.367 682.446H531.303C527.613 682.446 524.611 679.445 524.611 675.755V593.958C524.611 590.268 527.613 587.266 531.303 587.266H542.367C546.057 587.266 549.059 590.268 549.059 593.958V675.755C549.058 679.445 546.057 682.446 542.367 682.446ZM531.302 588.07C528.056 588.07 525.415 590.711 525.415 593.957V675.754C525.415 679.001 528.056 681.642 531.302 681.642H542.367C545.613 681.642 548.255 679.001 548.255 675.754V593.957C548.255 590.711 545.613 588.07 542.367 588.07H531.302Z" fill="#001731"/>
<path opacity="0.64" d="M511.49 710.023H500.426C496.736 710.023 493.734 707.022 493.734 703.332V693.923C493.734 690.234 496.736 687.232 500.426 687.232H511.49C515.18 687.232 518.182 690.234 518.182 693.923V703.332C518.182 707.022 515.18 710.023 511.49 710.023ZM500.426 688.036C497.179 688.036 494.538 690.677 494.538 693.924V703.332C494.538 706.579 497.18 709.22 500.426 709.22H511.49C514.737 709.22 517.378 706.579 517.378 703.332V693.924C517.378 690.677 514.736 688.036 511.49 688.036H500.426Z" fill="#001731"/>
<path opacity="0.64" d="M542.367 710.023H531.303C527.613 710.023 524.611 707.022 524.611 703.332V693.923C524.611 690.234 527.613 687.232 531.303 687.232H542.367C546.057 687.232 549.059 690.234 549.059 693.923V703.332C549.058 707.022 546.057 710.023 542.367 710.023ZM531.302 688.036C528.056 688.036 525.415 690.677 525.415 693.924V703.332C525.415 706.579 528.056 709.22 531.302 709.22H542.367C545.613 709.22 548.255 706.579 548.255 703.332V693.924C548.255 690.677 545.613 688.036 542.367 688.036H531.302Z" fill="#001731"/>
<path opacity="0.64" d="M661.897 688.036H578.476C573.693 688.036 569.802 684.144 569.802 679.361V534.927C569.802 512.086 588.384 493.505 611.224 493.505H629.15C651.99 493.505 670.572 512.086 670.572 534.927V679.361C670.572 684.144 666.681 688.036 661.897 688.036ZM611.224 494.308C588.827 494.308 570.605 512.529 570.605 534.926V679.36C570.605 683.701 574.137 687.232 578.476 687.232H661.897C666.237 687.232 669.768 683.701 669.768 679.36V534.926C669.768 512.529 651.547 494.308 629.15 494.308H611.224Z" fill="#001731"/>
<path opacity="0.64" d="M471.062 688.036H387.642C382.859 688.036 378.967 684.144 378.967 679.361V534.927C378.967 512.086 397.549 493.505 420.389 493.505H438.315C461.155 493.505 479.737 512.086 479.737 534.927V679.361C479.737 684.144 475.846 688.036 471.062 688.036ZM420.389 494.308C397.992 494.308 379.771 512.529 379.771 534.926V679.36C379.771 683.701 383.302 687.232 387.642 687.232H471.063C475.403 687.232 478.934 683.701 478.934 679.36V534.926C478.934 512.529 460.712 494.308 438.315 494.308H420.389Z" fill="#001731"/>
<path opacity="0.64" d="M706.426 435.626C706.254 435.626 706.095 435.514 706.042 435.341L682.512 357.581C680.905 352.268 676.097 348.669 670.549 348.625C608.95 348.139 571.232 348.158 569.656 348.676C569.448 348.744 569.217 348.64 569.143 348.438C569.068 348.235 569.157 348.013 569.357 347.931C571.244 347.155 633.571 347.529 670.556 347.821C676.457 347.868 681.571 351.697 683.281 357.348L706.81 435.107C706.874 435.32 706.754 435.544 706.542 435.608C706.504 435.62 706.465 435.626 706.426 435.626Z" fill="#001731"/>
<path d="M908.931 431.209C930.833 409.307 930.833 373.797 908.931 351.894C887.029 329.992 851.518 329.992 829.616 351.894C807.714 373.797 807.714 409.307 829.616 431.209C851.518 453.111 887.029 453.111 908.931 431.209Z" fill="#006FEE"/>
<path d="M890.537 424.364H848.66C845.929 424.364 843.673 422.228 843.522 419.501L840.478 364.16C840.4 362.734 840.897 361.378 841.879 360.34C842.86 359.303 844.187 358.732 845.616 358.732H890.537C893.374 358.732 895.681 361.04 895.681 363.877V419.218C895.682 422.056 893.374 424.364 890.537 424.364ZM845.616 360.339C844.634 360.339 843.721 360.732 843.046 361.445C842.371 362.158 842.029 363.091 842.083 364.072L845.127 419.413C845.23 421.288 846.782 422.757 848.659 422.757H890.536C892.487 422.757 894.074 421.17 894.074 419.219V363.877C894.074 361.926 892.487 360.339 890.536 360.339H845.616Z" fill="#CCE3FD"/>
<path d="M869.953 414.146C860.087 414.146 852.06 406.119 852.06 396.253C852.06 386.387 860.087 378.361 869.953 378.361C879.818 378.361 887.845 386.387 887.845 396.253C887.845 406.119 879.818 414.146 869.953 414.146ZM869.953 379.967C860.973 379.967 853.667 387.273 853.667 396.253C853.667 405.233 860.973 412.539 869.953 412.539C878.932 412.539 886.238 405.233 886.238 396.253C886.237 387.273 878.932 379.967 869.953 379.967Z" fill="#CCE3FD"/>
<path d="M870.119 410.058C862.856 410.058 856.948 404.149 856.948 396.887C856.948 389.625 862.856 383.716 870.119 383.716C877.382 383.716 883.29 389.625 883.29 396.887C883.29 404.149 877.382 410.058 870.119 410.058ZM870.119 385.323C863.742 385.323 858.555 390.511 858.555 396.887C858.555 403.264 863.742 408.452 870.119 408.452C876.496 408.452 881.683 403.264 881.683 396.887C881.683 390.511 876.496 385.323 870.119 385.323Z" fill="#CCE3FD"/>
<path d="M862.716 372.107H846.172V363.458H862.716V372.107ZM847.779 370.501H861.109V365.065H847.779V370.501Z" fill="#CCE3FD"/>
<path d="M887.845 368.586H870.925V363.458H887.845V368.586ZM872.532 366.979H886.238V365.065H872.532V366.979Z" fill="#CCE3FD"/>
<path d="M879.385 404.051C879.15 404.051 878.918 403.948 878.759 403.751C872.754 396.293 878.801 390.989 878.863 390.936C879.201 390.647 879.708 390.688 879.996 391.026C880.283 391.363 880.244 391.869 879.908 392.157C879.705 392.332 875.002 396.523 880.01 402.743C880.288 403.088 880.233 403.595 879.888 403.873C879.74 403.993 879.562 404.051 879.385 404.051Z" fill="#CCE3FD"/>
<path d="M873.146 373.363C871.922 373.363 870.925 372.366 870.925 371.142C870.925 369.917 871.921 368.921 873.146 368.921C874.37 368.921 875.367 369.917 875.367 371.142C875.367 372.366 874.371 373.363 873.146 373.363ZM873.146 370.528C872.808 370.528 872.532 370.803 872.532 371.142C872.532 371.481 872.808 371.756 873.146 371.756C873.485 371.756 873.76 371.481 873.76 371.142C873.76 370.803 873.485 370.528 873.146 370.528Z" fill="#CCE3FD"/>
<path d="M879.574 373.363C878.349 373.363 877.353 372.366 877.353 371.142C877.353 369.917 878.349 368.921 879.574 368.921C880.799 368.921 881.795 369.917 881.795 371.142C881.795 372.366 880.798 373.363 879.574 373.363ZM879.574 370.528C879.235 370.528 878.959 370.803 878.959 371.142C878.959 371.481 879.235 371.756 879.574 371.756C879.913 371.756 880.188 371.481 880.188 371.142C880.188 370.803 879.913 370.528 879.574 370.528Z" fill="#CCE3FD"/>
<path d="M885.208 373.363C883.983 373.363 882.986 372.366 882.986 371.142C882.986 369.917 883.983 368.921 885.208 368.921C886.432 368.921 887.429 369.917 887.429 371.142C887.428 372.366 886.432 373.363 885.208 373.363ZM885.208 370.528C884.869 370.528 884.593 370.803 884.593 371.142C884.593 371.481 884.869 371.756 885.208 371.756C885.546 371.756 885.822 371.481 885.822 371.142C885.821 370.803 885.546 370.528 885.208 370.528Z" fill="#CCE3FD"/>
<path d="M452.854 288.591C483.829 288.591 508.939 263.482 508.939 232.507C508.939 201.532 483.829 176.423 452.854 176.423C421.88 176.423 396.77 201.532 396.77 232.507C396.77 263.482 421.88 288.591 452.854 288.591Z" fill="#006FEE"/>
<path d="M612.947 288.591C643.922 288.591 669.032 263.482 669.032 232.507C669.032 201.532 643.922 176.423 612.947 176.423C581.973 176.423 556.863 201.532 556.863 232.507C556.863 263.482 581.973 288.591 612.947 288.591Z" fill="#006FEE"/>
<path d="M801.12 327.673C823.022 305.771 823.022 270.26 801.12 248.358C779.218 226.456 743.708 226.456 721.806 248.358C699.904 270.26 699.904 305.771 721.806 327.673C743.708 349.575 779.218 349.575 801.12 327.673Z" fill="#006FEE"/>
<path d="M758.067 329.118C751.863 329.118 746.816 324.072 746.816 317.869C746.816 313.522 749.3 309.599 753.187 307.729V258.945C753.187 256.254 755.376 254.065 758.067 254.065C760.758 254.065 762.947 256.254 762.947 258.945V307.729C766.835 309.599 769.318 313.522 769.318 317.869C769.317 324.072 764.271 329.118 758.067 329.118ZM758.067 255.672C756.262 255.672 754.794 257.14 754.794 258.945V308.779L754.304 308.987C750.731 310.502 748.423 313.988 748.423 317.869C748.423 323.186 752.749 327.512 758.067 327.512C763.384 327.512 767.71 323.186 767.71 317.869C767.71 313.988 765.402 310.502 761.829 308.987L761.339 308.779V258.945C761.34 257.14 759.871 255.672 758.067 255.672Z" fill="#CCE3FD"/>
<path d="M780.754 258.729H768.514C768.07 258.729 767.71 258.37 767.71 257.926C767.71 257.482 768.07 257.123 768.514 257.123H780.754C781.198 257.123 781.558 257.482 781.558 257.926C781.558 258.37 781.198 258.729 780.754 258.729Z" fill="#CCE3FD"/>
<path d="M774.634 263.027H768.514C768.07 263.027 767.71 262.668 767.71 262.224C767.71 261.78 768.07 261.42 768.514 261.42H774.634C775.078 261.42 775.438 261.779 775.438 262.224C775.438 262.668 775.078 263.027 774.634 263.027Z" fill="#CCE3FD"/>
<path d="M774.634 267.325H768.514C768.07 267.325 767.71 266.966 767.71 266.522C767.71 266.078 768.07 265.719 768.514 265.719H774.634C775.078 265.719 775.438 266.078 775.438 266.522C775.438 266.966 775.078 267.325 774.634 267.325Z" fill="#CCE3FD"/>
<path d="M774.634 271.623H768.514C768.07 271.623 767.71 271.263 767.71 270.819C767.71 270.375 768.07 270.015 768.514 270.015H774.634C775.078 270.015 775.438 270.375 775.438 270.819C775.438 271.263 775.078 271.623 774.634 271.623Z" fill="#CCE3FD"/>
<path d="M780.754 258.729H768.514C768.07 258.729 767.71 258.37 767.71 257.926C767.71 257.482 768.07 257.123 768.514 257.123H780.754C781.198 257.123 781.558 257.482 781.558 257.926C781.558 258.37 781.198 258.729 780.754 258.729Z" fill="#CCE3FD"/>
<path d="M774.634 263.027H768.514C768.07 263.027 767.71 262.668 767.71 262.224C767.71 261.78 768.07 261.42 768.514 261.42H774.634C775.078 261.42 775.438 261.779 775.438 262.224C775.438 262.668 775.078 263.027 774.634 263.027Z" fill="#CCE3FD"/>
<path d="M774.634 267.325H768.514C768.07 267.325 767.71 266.966 767.71 266.522C767.71 266.078 768.07 265.719 768.514 265.719H774.634C775.078 265.719 775.438 266.078 775.438 266.522C775.438 266.966 775.078 267.325 774.634 267.325Z" fill="#CCE3FD"/>
<path d="M774.634 271.623H768.514C768.07 271.623 767.71 271.263 767.71 270.819C767.71 270.375 768.07 270.015 768.514 270.015H774.634C775.078 270.015 775.438 270.375 775.438 270.819C775.438 271.263 775.078 271.623 774.634 271.623Z" fill="#CCE3FD"/>
<path d="M780.754 275.921H768.514C768.07 275.921 767.71 275.562 767.71 275.118C767.71 274.674 768.07 274.314 768.514 274.314H780.754C781.198 274.314 781.558 274.673 781.558 275.118C781.558 275.562 781.198 275.921 780.754 275.921Z" fill="#CCE3FD"/>
<path d="M774.634 280.219H768.514C768.07 280.219 767.71 279.86 767.71 279.416C767.71 278.971 768.07 278.612 768.514 278.612H774.634C775.078 278.612 775.438 278.971 775.438 279.416C775.438 279.86 775.078 280.219 774.634 280.219Z" fill="#CCE3FD"/>
<path d="M774.634 284.517H768.514C768.07 284.517 767.71 284.158 767.71 283.714C767.71 283.27 768.07 282.91 768.514 282.91H774.634C775.078 282.91 775.438 283.27 775.438 283.714C775.438 284.158 775.078 284.517 774.634 284.517Z" fill="#CCE3FD"/>
<path d="M774.634 288.815H768.514C768.07 288.815 767.71 288.455 767.71 288.011C767.71 287.567 768.07 287.208 768.514 287.208H774.634C775.078 287.208 775.438 287.567 775.438 288.011C775.438 288.455 775.078 288.815 774.634 288.815Z" fill="#CCE3FD"/>
<path d="M780.754 293.113H768.514C768.07 293.113 767.71 292.754 767.71 292.309C767.71 291.865 768.07 291.506 768.514 291.506H780.754C781.198 291.506 781.558 291.865 781.558 292.309C781.558 292.754 781.198 293.113 780.754 293.113Z" fill="#CCE3FD"/>
<path d="M774.634 297.411H768.514C768.07 297.411 767.71 297.052 767.71 296.607C767.71 296.163 768.07 295.804 768.514 295.804H774.634C775.078 295.804 775.438 296.163 775.438 296.607C775.438 297.052 775.078 297.411 774.634 297.411Z" fill="#CCE3FD"/>
<path d="M774.634 301.708H768.514C768.07 301.708 767.71 301.349 767.71 300.905C767.71 300.461 768.07 300.102 768.514 300.102H774.634C775.078 300.102 775.438 300.461 775.438 300.905C775.438 301.349 775.078 301.708 774.634 301.708Z" fill="#CCE3FD"/>
<path d="M774.634 306.007H768.514C768.07 306.007 767.71 305.647 767.71 305.203C767.71 304.759 768.07 304.4 768.514 304.4H774.634C775.078 304.4 775.438 304.759 775.438 305.203C775.438 305.647 775.078 306.007 774.634 306.007Z" fill="#CCE3FD"/>
<path d="M614.267 258.729C609.028 258.729 604.765 254.466 604.765 249.228C604.765 243.989 609.028 239.727 614.267 239.727C619.506 239.727 623.769 243.989 623.769 249.228C623.769 254.466 619.506 258.729 614.267 258.729ZM614.267 241.333C609.914 241.333 606.372 244.874 606.372 249.228C606.372 253.581 609.914 257.123 614.267 257.123C618.62 257.123 622.162 253.581 622.162 249.228C622.162 244.874 618.62 241.333 614.267 241.333Z" fill="#CCE3FD"/>
<path d="M629.611 234.688C629.405 234.688 629.199 234.609 629.043 234.452C625.096 230.505 619.848 228.331 614.267 228.331C608.685 228.331 603.438 230.505 599.491 234.452C599.177 234.766 598.669 234.766 598.355 234.452C598.041 234.138 598.041 233.63 598.355 233.316C602.605 229.065 608.256 226.724 614.267 226.724C620.277 226.724 625.929 229.066 630.178 233.316C630.492 233.63 630.492 234.138 630.178 234.452C630.022 234.609 629.816 234.688 629.611 234.688Z" fill="#CCE3FD"/>
<path d="M638.804 225.494C638.598 225.494 638.393 225.416 638.236 225.259C631.834 218.856 623.321 215.33 614.267 215.33C605.213 215.33 596.7 218.856 590.298 225.259C589.984 225.573 589.476 225.573 589.162 225.259C588.848 224.945 588.848 224.436 589.162 224.122C595.868 217.416 604.784 213.723 614.267 213.723C623.75 213.723 632.666 217.416 639.372 224.122C639.686 224.436 639.686 224.945 639.372 225.259C639.215 225.416 639.01 225.494 638.804 225.494Z" fill="#CCE3FD"/>
<path d="M647.997 216.301C647.792 216.301 647.586 216.222 647.429 216.065C638.572 207.207 626.794 202.329 614.267 202.329C601.74 202.329 589.962 207.207 581.105 216.065C580.791 216.379 580.282 216.379 579.968 216.065C579.654 215.751 579.654 215.243 579.968 214.929C589.13 205.767 601.311 200.722 614.267 200.722C627.223 200.722 639.404 205.767 648.566 214.929C648.879 215.243 648.879 215.751 648.566 216.065C648.409 216.222 648.203 216.301 647.997 216.301Z" fill="#CCE3FD"/>
<path d="M453.94 262.594H453.125C448.21 262.594 444.211 258.595 444.211 253.68V252.24C444.211 248.29 442.32 244.71 439.152 242.662C431.007 237.396 426.382 228.105 427.082 218.412C428.025 205.357 438.585 194.829 451.644 193.923C459.096 193.416 466.19 195.915 471.623 200.985C476.982 205.985 480.055 213.054 480.055 220.381C480.055 229.401 475.53 237.722 467.95 242.639C464.76 244.708 462.855 248.227 462.855 252.05V253.68C462.855 258.595 458.856 262.594 453.94 262.594ZM453.552 195.464C452.956 195.464 452.357 195.485 451.755 195.527C439.489 196.377 429.571 206.266 428.685 218.528C428.027 227.635 432.371 236.365 440.024 241.312C443.652 243.658 445.818 247.743 445.818 252.239V253.679C445.818 257.709 449.096 260.987 453.125 260.987H453.94C457.969 260.987 461.247 257.709 461.247 253.679V252.05C461.247 247.679 463.426 243.657 467.074 241.29C474.196 236.671 478.447 228.854 478.447 220.38C478.447 213.498 475.56 206.856 470.525 202.159C465.861 197.806 459.89 195.464 453.552 195.464Z" fill="#CCE3FD"/>
<path d="M461.953 269.821H445.112C444.669 269.821 444.309 269.461 444.309 269.017V265.722C444.309 265.278 444.668 264.919 445.112 264.919H461.953C462.397 264.919 462.757 265.278 462.757 265.722V269.017C462.756 269.461 462.397 269.821 461.953 269.821ZM445.915 268.214H461.149V266.525H445.915V268.214Z" fill="#CCE3FD"/>
<path d="M455.128 279.704H451.937C448.506 279.704 445.715 276.914 445.715 273.482V272.312C445.715 271.868 446.074 271.508 446.518 271.508H460.547C460.991 271.508 461.351 271.867 461.351 272.312V272.679C461.35 275.996 458.689 279.704 455.128 279.704ZM447.322 273.115V273.482C447.322 276.027 449.392 278.097 451.937 278.097H455.128C457.577 278.097 459.509 275.51 459.724 273.115H447.322Z" fill="#CCE3FD"/>
<path d="M452.854 254.153C452.49 254.153 452.16 253.904 452.073 253.534L444.331 220.655C444.229 220.223 444.497 219.791 444.929 219.688C445.355 219.592 445.792 219.855 445.895 220.286L453.637 253.165C453.739 253.597 453.471 254.03 453.039 254.132C452.977 254.146 452.915 254.153 452.854 254.153Z" fill="#CCE3FD"/>
<path d="M456.796 254.153C456.753 254.153 456.709 254.15 456.666 254.143C456.228 254.072 455.931 253.658 456.002 253.22L461.16 221.599C461.231 221.16 461.643 220.86 462.082 220.935C462.52 221.007 462.817 221.42 462.746 221.858L457.588 253.479C457.524 253.873 457.183 254.153 456.796 254.153Z" fill="#CCE3FD"/>
<path d="M448.983 223.976C448.888 223.976 448.79 223.958 448.695 223.922C448.281 223.763 448.074 223.298 448.233 222.884L451.321 214.837C451.435 214.541 451.712 214.339 452.03 214.323C452.339 214.305 452.644 214.479 452.788 214.762L456.303 221.697L458.747 218.647C459.025 218.301 459.531 218.245 459.876 218.522C460.222 218.8 460.278 219.305 460.001 219.651L456.777 223.675C456.606 223.888 456.339 223.99 456.067 223.972C455.796 223.944 455.557 223.779 455.434 223.536L452.173 217.103L449.733 223.461C449.611 223.78 449.307 223.976 448.983 223.976Z" fill="#CCE3FD"/>
<path d="M332.416 328.25C354.319 306.347 354.319 270.837 332.417 248.935C310.514 227.033 275.004 227.033 253.102 248.935C231.2 270.837 231.2 306.347 253.102 328.25C275.004 350.152 310.514 350.152 332.416 328.25Z" fill="#006FEE"/>
<path d="M302.776 327.138H283.475C272.981 327.138 264.444 318.6 264.444 308.106V287.918C264.444 287.474 264.803 287.115 265.247 287.115H321.004C321.448 287.115 321.808 287.474 321.808 287.918V308.106C321.807 318.6 313.27 327.138 302.776 327.138ZM266.05 288.722V308.106C266.05 317.715 273.867 325.531 283.475 325.531H302.776C312.384 325.531 320.201 317.715 320.201 308.106V288.722H266.05Z" fill="#CCE3FD"/>
<path d="M314.141 285.535C313.698 285.535 313.338 285.176 313.338 284.732V269.399C313.338 259.613 305.377 251.652 295.591 251.652H289.802C280.016 251.652 272.055 259.613 272.055 269.399V284.732C272.055 285.176 271.696 285.535 271.252 285.535C270.808 285.535 270.448 285.176 270.448 284.732V269.399C270.448 258.727 279.13 250.045 289.801 250.045H295.591C306.262 250.045 314.944 258.727 314.944 269.399V284.732C314.945 285.176 314.585 285.535 314.141 285.535Z" fill="#CCE3FD"/>
<path d="M309.348 285.535C308.905 285.535 308.545 285.176 308.545 284.732V271.583C308.545 263.254 302.444 256.479 294.944 256.479H290.448C282.949 256.479 276.848 263.255 276.848 271.583V284.732C276.848 285.176 276.488 285.535 276.044 285.535C275.601 285.535 275.241 285.176 275.241 284.732V271.583C275.241 262.368 282.063 254.872 290.448 254.872H294.944C303.329 254.872 310.151 262.368 310.151 271.583V284.732C310.152 285.176 309.792 285.535 309.348 285.535Z" fill="#CCE3FD"/>
<path d="M293.362 318.745C291.467 318.745 289.926 317.204 289.926 315.309V307.343C287.19 305.9 285.661 302.944 286.088 299.821C286.534 296.566 289.231 293.932 292.501 293.559C294.595 293.317 296.69 293.98 298.25 295.373C299.811 296.766 300.706 298.764 300.706 300.854C300.706 303.583 299.188 306.075 296.797 307.342V315.309C296.798 317.204 295.256 318.745 293.362 318.745ZM293.369 295.116C293.143 295.116 292.914 295.13 292.684 295.155C290.132 295.446 288.028 297.5 287.681 300.04C287.327 302.622 288.682 305.059 291.054 306.104C291.345 306.233 291.533 306.521 291.533 306.839V315.309C291.533 316.317 292.353 317.138 293.362 317.138C294.37 317.138 295.191 316.318 295.191 315.309V306.839C295.191 306.521 295.379 306.233 295.671 306.104C297.754 305.186 299.1 303.126 299.1 300.854C299.1 299.222 298.4 297.661 297.181 296.573C296.115 295.621 294.782 295.116 293.369 295.116Z" fill="#CCE3FD"/>
<path d="M195.298 440.107C194.046 490.641 189.983 664.954 191.922 726.725C192.128 733.269 197.373 738.522 203.918 738.735C236.284 739.795 329.391 742.479 382.33 740.258C393.357 739.796 402.126 730.864 402.354 719.83C403.454 666.788 405.882 517.6 400.113 449.257C399.421 441.068 392.994 434.547 384.817 433.729C349.569 430.203 255.952 421.584 210.215 424.552C201.966 425.087 195.503 431.843 195.298 440.107Z" fill="#001731"/>
<path d="M206.321 455.611C204.579 496.4 199.084 632.095 200.828 682.272C201.083 689.607 206.863 695.537 214.189 695.965C244.352 697.731 321.718 701.623 365.961 698.08C373.927 697.442 380.179 690.999 380.609 683.019C382.851 641.405 389.288 515.054 387.617 465.44C387.35 457.525 381.219 451.061 373.331 450.352C340.699 447.423 256.889 440.451 219.294 442.503C212.236 442.887 206.623 448.55 206.321 455.611Z" fill="#E6F1FE"/>
<path d="M271.868 433.382C271.868 434.933 273.077 436.211 274.625 436.293C282.269 436.693 303.805 437.826 313.429 438.384C315.327 438.495 316.816 436.789 316.456 434.922L316.395 434.604C316.149 433.33 315.093 432.371 313.801 432.253C307.296 431.657 287.665 430.004 274.659 430.468C273.097 430.524 271.868 431.819 271.868 433.382Z" fill="#001731"/>
<path d="M337.409 607.852C354.133 607.852 367.691 594.295 367.691 577.57C367.691 560.846 354.133 547.289 337.409 547.289C320.685 547.289 307.127 560.846 307.127 577.57C307.127 594.295 320.685 607.852 337.409 607.852Z" fill="#006FEE"/>
<path d="M348.886 595.289H326.275C324.8 595.289 323.582 594.136 323.501 592.663L321.857 562.783C321.815 562.013 322.084 561.28 322.614 560.72C323.144 560.16 323.86 559.852 324.632 559.852H348.886C350.417 559.852 351.663 561.099 351.663 562.63V592.511C351.663 594.042 350.417 595.289 348.886 595.289ZM324.631 560.72C324.101 560.72 323.608 560.932 323.244 561.317C322.879 561.702 322.695 562.206 322.724 562.735L324.367 592.615C324.423 593.628 325.261 594.421 326.275 594.421H348.886C349.939 594.421 350.796 593.564 350.796 592.51V562.63C350.796 561.576 349.939 560.719 348.886 560.719H324.631V560.72Z" fill="#CCE3FD"/>
<path d="M337.771 589.772C332.445 589.772 328.111 585.438 328.111 580.111C328.111 574.784 332.445 570.45 337.771 570.45C343.098 570.45 347.432 574.784 347.432 580.111C347.432 585.438 343.099 589.772 337.771 589.772ZM337.771 571.318C332.923 571.318 328.979 575.263 328.979 580.111C328.979 584.96 332.923 588.904 337.771 588.904C342.62 588.904 346.564 584.96 346.564 580.111C346.565 575.263 342.62 571.318 337.771 571.318Z" fill="#CCE3FD"/>
<path d="M337.862 587.565C333.94 587.565 330.75 584.375 330.75 580.454C330.75 576.532 333.94 573.342 337.862 573.342C341.783 573.342 344.973 576.532 344.973 580.454C344.973 584.374 341.783 587.565 337.862 587.565ZM337.862 574.209C334.419 574.209 331.617 577.01 331.617 580.453C331.617 583.896 334.419 586.697 337.862 586.697C341.304 586.697 344.106 583.896 344.106 580.453C344.106 577.01 341.305 574.209 337.862 574.209Z" fill="#CCE3FD"/>
<path d="M333.864 567.074H324.932V562.404H333.864V567.074ZM325.799 566.206H332.997V563.272H325.799V566.206Z" fill="#CCE3FD"/>
<path d="M347.432 565.173H338.296V562.405H347.432V565.173ZM339.164 564.305H346.565V563.272H339.164V564.305Z" fill="#CCE3FD"/>
<path d="M342.865 584.321C342.738 584.321 342.612 584.266 342.527 584.159C339.284 580.132 342.55 577.269 342.583 577.24C342.765 577.084 343.039 577.107 343.194 577.289C343.349 577.471 343.328 577.744 343.147 577.9C343.037 577.994 340.498 580.257 343.202 583.616C343.353 583.802 343.323 584.076 343.136 584.226C343.056 584.29 342.96 584.321 342.865 584.321Z" fill="#CCE3FD"/>
<path d="M339.496 567.752C338.834 567.752 338.296 567.214 338.296 566.553C338.296 565.891 338.835 565.354 339.496 565.354C340.157 565.354 340.695 565.892 340.695 566.553C340.695 567.214 340.157 567.752 339.496 567.752ZM339.496 566.221C339.313 566.221 339.164 566.37 339.164 566.553C339.164 566.736 339.313 566.884 339.496 566.884C339.679 566.884 339.827 566.736 339.827 566.553C339.827 566.37 339.679 566.221 339.496 566.221Z" fill="#CCE3FD"/>
<path d="M342.966 567.752C342.305 567.752 341.767 567.214 341.767 566.553C341.767 565.891 342.305 565.354 342.966 565.354C343.627 565.354 344.165 565.892 344.165 566.553C344.165 567.214 343.628 567.752 342.966 567.752ZM342.966 566.221C342.784 566.221 342.635 566.37 342.635 566.553C342.635 566.736 342.784 566.884 342.966 566.884C343.149 566.884 343.298 566.736 343.298 566.553C343.298 566.37 343.149 566.221 342.966 566.221Z" fill="#CCE3FD"/>
<path d="M346.008 567.752C345.347 567.752 344.809 567.214 344.809 566.553C344.809 565.891 345.347 565.354 346.008 565.354C346.669 565.354 347.207 565.892 347.207 566.553C347.207 567.214 346.67 567.752 346.008 567.752ZM346.008 566.221C345.826 566.221 345.677 566.37 345.677 566.553C345.677 566.736 345.826 566.884 346.008 566.884C346.191 566.884 346.34 566.736 346.34 566.553C346.34 566.37 346.191 566.221 346.008 566.221Z" fill="#CCE3FD"/>
<path d="M254.392 607.852C271.116 607.852 284.674 594.295 284.674 577.57C284.674 560.846 271.116 547.289 254.392 547.289C237.668 547.289 224.111 560.846 224.111 577.57C224.111 594.295 237.668 607.852 254.392 607.852Z" fill="#006FEE"/>
<path d="M252.555 599.766C249.205 599.766 246.48 597.041 246.48 593.691C246.48 591.345 247.821 589.227 249.92 588.217V561.877C249.92 560.424 251.102 559.242 252.555 559.242C254.007 559.242 255.189 560.424 255.189 561.877V588.217C257.288 589.227 258.629 591.345 258.629 593.691C258.629 597.04 255.904 599.766 252.555 599.766ZM252.555 560.11C251.58 560.11 250.788 560.903 250.788 561.877V588.783L250.523 588.896C248.594 589.714 247.348 591.596 247.348 593.691C247.348 596.562 249.684 598.898 252.555 598.898C255.426 598.898 257.762 596.562 257.762 593.691C257.762 591.596 256.515 589.714 254.586 588.896L254.322 588.783V561.877C254.322 560.902 253.529 560.11 252.555 560.11Z" fill="#CCE3FD"/>
<path d="M264.804 561.76H258.195C257.956 561.76 257.761 561.567 257.761 561.327C257.761 561.087 257.956 560.893 258.195 560.893H264.804C265.044 560.893 265.238 561.087 265.238 561.327C265.238 561.567 265.044 561.76 264.804 561.76Z" fill="#CCE3FD"/>
<path d="M261.5 564.081H258.196C257.956 564.081 257.762 563.887 257.762 563.647C257.762 563.407 257.956 563.213 258.196 563.213H261.5C261.74 563.213 261.934 563.407 261.934 563.647C261.934 563.887 261.74 564.081 261.5 564.081Z" fill="#CCE3FD"/>
<path d="M261.5 566.402H258.196C257.956 566.402 257.762 566.208 257.762 565.968C257.762 565.728 257.956 565.534 258.196 565.534H261.5C261.74 565.534 261.934 565.728 261.934 565.968C261.934 566.208 261.74 566.402 261.5 566.402Z" fill="#CCE3FD"/>
<path d="M261.5 568.722H258.196C257.956 568.722 257.762 568.528 257.762 568.288C257.762 568.048 257.956 567.854 258.196 567.854H261.5C261.74 567.854 261.934 568.048 261.934 568.288C261.934 568.528 261.74 568.722 261.5 568.722Z" fill="#CCE3FD"/>
<path d="M264.804 561.76H258.195C257.956 561.76 257.761 561.567 257.761 561.327C257.761 561.087 257.956 560.893 258.195 560.893H264.804C265.044 560.893 265.238 561.087 265.238 561.327C265.238 561.567 265.044 561.76 264.804 561.76Z" fill="#CCE3FD"/>
<path d="M261.5 564.081H258.196C257.956 564.081 257.762 563.887 257.762 563.647C257.762 563.407 257.956 563.213 258.196 563.213H261.5C261.74 563.213 261.934 563.407 261.934 563.647C261.934 563.887 261.74 564.081 261.5 564.081Z" fill="#CCE3FD"/>
<path d="M261.5 566.402H258.196C257.956 566.402 257.762 566.208 257.762 565.968C257.762 565.728 257.956 565.534 258.196 565.534H261.5C261.74 565.534 261.934 565.728 261.934 565.968C261.934 566.208 261.74 566.402 261.5 566.402Z" fill="#CCE3FD"/>
<path d="M261.5 568.722H258.196C257.956 568.722 257.762 568.528 257.762 568.288C257.762 568.048 257.956 567.854 258.196 567.854H261.5C261.74 567.854 261.934 568.048 261.934 568.288C261.934 568.528 261.74 568.722 261.5 568.722Z" fill="#CCE3FD"/>
<path d="M264.804 571.043H258.195C257.956 571.043 257.761 570.849 257.761 570.609C257.761 570.369 257.956 570.175 258.195 570.175H264.804C265.044 570.175 265.238 570.369 265.238 570.609C265.238 570.849 265.044 571.043 264.804 571.043Z" fill="#CCE3FD"/>
<path d="M261.5 573.363H258.196C257.956 573.363 257.762 573.169 257.762 572.929C257.762 572.689 257.956 572.495 258.196 572.495H261.5C261.74 572.495 261.934 572.689 261.934 572.929C261.934 573.169 261.74 573.363 261.5 573.363Z" fill="#CCE3FD"/>
<path d="M261.5 575.684H258.196C257.956 575.684 257.762 575.49 257.762 575.25C257.762 575.01 257.956 574.816 258.196 574.816H261.5C261.74 574.816 261.934 575.01 261.934 575.25C261.934 575.49 261.74 575.684 261.5 575.684Z" fill="#CCE3FD"/>
<path d="M261.5 578.004H258.196C257.956 578.004 257.762 577.81 257.762 577.57C257.762 577.33 257.956 577.136 258.196 577.136H261.5C261.74 577.136 261.934 577.33 261.934 577.57C261.934 577.81 261.74 578.004 261.5 578.004Z" fill="#CCE3FD"/>
<path d="M264.804 580.325H258.195C257.956 580.325 257.761 580.131 257.761 579.891C257.761 579.651 257.956 579.457 258.195 579.457H264.804C265.044 579.457 265.238 579.651 265.238 579.891C265.238 580.131 265.044 580.325 264.804 580.325Z" fill="#CCE3FD"/>
<path d="M261.5 582.646H258.196C257.956 582.646 257.762 582.452 257.762 582.212C257.762 581.972 257.956 581.778 258.196 581.778H261.5C261.74 581.778 261.934 581.972 261.934 582.212C261.934 582.452 261.74 582.646 261.5 582.646Z" fill="#CCE3FD"/>
<path d="M261.5 584.966H258.196C257.956 584.966 257.762 584.772 257.762 584.532C257.762 584.292 257.956 584.098 258.196 584.098H261.5C261.74 584.098 261.934 584.292 261.934 584.532C261.934 584.772 261.74 584.966 261.5 584.966Z" fill="#CCE3FD"/>
<path d="M261.5 587.287H258.196C257.956 587.287 257.762 587.093 257.762 586.853C257.762 586.613 257.956 586.419 258.196 586.419H261.5C261.74 586.419 261.934 586.613 261.934 586.853C261.934 587.092 261.74 587.287 261.5 587.287Z" fill="#CCE3FD"/>
<path d="M297.086 681.823C313.81 681.823 327.368 668.265 327.368 651.541C327.368 634.817 313.81 621.259 297.086 621.259C280.362 621.259 266.805 634.817 266.805 651.541C266.805 668.265 280.362 681.823 297.086 681.823Z" fill="#006FEE"/>
<path d="M297.799 670.724C294.97 670.724 292.668 668.422 292.668 665.593C292.668 662.765 294.97 660.464 297.799 660.464C300.628 660.464 302.929 662.765 302.929 665.593C302.929 668.422 300.628 670.724 297.799 670.724ZM297.799 661.331C295.449 661.331 293.536 663.243 293.536 665.593C293.536 667.944 295.449 669.856 297.799 669.856C300.149 669.856 302.062 667.944 302.062 665.593C302.062 663.243 300.149 661.331 297.799 661.331Z" fill="#CCE3FD"/>
<path d="M306.083 657.743C305.972 657.743 305.862 657.7 305.777 657.616C303.646 655.485 300.812 654.311 297.799 654.311C294.785 654.311 291.952 655.485 289.821 657.616C289.652 657.785 289.377 657.785 289.208 657.616C289.038 657.446 289.038 657.172 289.208 657.002C291.502 654.707 294.553 653.443 297.799 653.443C301.044 653.443 304.096 654.707 306.39 657.002C306.56 657.172 306.56 657.446 306.39 657.616C306.305 657.7 306.194 657.743 306.083 657.743Z" fill="#CCE3FD"/>
<path d="M311.047 652.779C310.936 652.779 310.825 652.737 310.74 652.652C307.283 649.195 302.687 647.292 297.799 647.292C292.91 647.292 288.314 649.195 284.857 652.652C284.687 652.822 284.413 652.822 284.243 652.652C284.074 652.483 284.074 652.208 284.243 652.039C287.864 648.418 292.678 646.424 297.799 646.424C302.919 646.424 307.733 648.418 311.354 652.039C311.523 652.208 311.523 652.483 311.354 652.652C311.269 652.737 311.158 652.779 311.047 652.779Z" fill="#CCE3FD"/>
<path d="M316.011 647.815C315.9 647.815 315.789 647.773 315.705 647.688C310.922 642.905 304.563 640.271 297.799 640.271C291.035 640.271 284.676 642.905 279.894 647.688C279.724 647.857 279.45 647.857 279.28 647.688C279.111 647.519 279.111 647.244 279.28 647.075C284.227 642.128 290.804 639.404 297.799 639.404C304.795 639.404 311.371 642.128 316.318 647.075C316.487 647.244 316.487 647.519 316.318 647.688C316.233 647.773 316.122 647.815 316.011 647.815Z" fill="#CCE3FD"/>
<path d="M367.311 505.366C369.99 488.858 358.78 473.303 342.271 470.624C325.763 467.945 310.209 479.155 307.529 495.664C304.85 512.172 316.061 527.727 332.569 530.406C349.078 533.085 364.632 521.874 367.311 505.366Z" fill="#006FEE"/>
<path d="M337.996 516.044H337.556C334.902 516.044 332.743 513.885 332.743 511.231V510.453C332.743 508.321 331.722 506.388 330.011 505.282C325.614 502.439 323.117 497.422 323.495 492.189C324.004 485.14 329.705 479.456 336.756 478.967C340.781 478.689 344.61 480.042 347.543 482.78C350.437 485.479 352.096 489.296 352.096 493.252C352.096 498.122 349.653 502.615 345.56 505.27C343.838 506.387 342.809 508.287 342.809 510.351V511.231C342.809 513.885 340.65 516.044 337.996 516.044ZM337.787 479.798C337.465 479.798 337.141 479.809 336.816 479.832C330.193 480.291 324.838 485.631 324.36 492.251C324.004 497.168 326.35 501.882 330.482 504.553C332.441 505.82 333.611 508.025 333.611 510.453V511.231C333.611 513.406 335.381 515.176 337.556 515.176H337.996C340.172 515.176 341.941 513.406 341.941 511.231V510.351C341.941 507.991 343.118 505.819 345.088 504.542C348.933 502.047 351.228 497.827 351.228 493.252C351.228 489.536 349.669 485.95 346.951 483.413C344.432 481.063 341.208 479.798 337.787 479.798Z" fill="#CCE3FD"/>
<path d="M342.322 519.946H333.229C332.99 519.946 332.795 519.752 332.795 519.512V517.733C332.795 517.493 332.99 517.299 333.229 517.299H342.322C342.562 517.299 342.756 517.493 342.756 517.733V519.512C342.756 519.752 342.562 519.946 342.322 519.946ZM333.663 519.078H341.888V518.167H333.663V519.078Z" fill="#CCE3FD"/>
<path d="M338.637 525.282H336.914C335.062 525.282 333.555 523.775 333.555 521.923V521.291C333.555 521.051 333.749 520.857 333.989 520.857H341.563C341.803 520.857 341.997 521.051 341.997 521.291V521.489C341.997 523.28 340.56 525.282 338.637 525.282ZM334.423 521.724V521.923C334.423 523.296 335.541 524.414 336.915 524.414H338.638C339.96 524.414 341.003 523.018 341.119 521.724H334.423Z" fill="#CCE3FD"/>
<path d="M337.41 511.486C337.213 511.486 337.035 511.352 336.988 511.152L332.808 493.4C332.753 493.166 332.897 492.933 333.13 492.878C333.36 492.823 333.597 492.967 333.652 493.201L337.833 510.953C337.888 511.186 337.743 511.42 337.51 511.475C337.476 511.483 337.443 511.486 337.41 511.486Z" fill="#CCE3FD"/>
<path d="M339.538 511.486C339.515 511.486 339.491 511.485 339.467 511.481C339.231 511.442 339.071 511.219 339.109 510.982L341.894 493.909C341.933 493.673 342.154 493.514 342.392 493.551C342.628 493.589 342.789 493.813 342.751 494.049L339.965 511.122C339.931 511.335 339.746 511.486 339.538 511.486Z" fill="#CCE3FD"/>
<path d="M335.32 495.193C335.268 495.193 335.215 495.183 335.164 495.164C334.94 495.078 334.829 494.827 334.915 494.604L336.582 490.259C336.643 490.099 336.793 489.989 336.965 489.981C337.133 489.972 337.296 490.065 337.374 490.218L339.272 493.962L340.591 492.315C340.741 492.128 341.014 492.098 341.201 492.248C341.388 492.397 341.418 492.671 341.268 492.857L339.527 495.03C339.435 495.145 339.291 495.203 339.144 495.191C338.998 495.175 338.869 495.086 338.802 494.955L337.042 491.482L335.724 494.914C335.658 495.087 335.494 495.193 335.32 495.193Z" fill="#CCE3FD"/>
<path d="M280.871 505.367C283.55 488.858 272.339 473.304 255.831 470.625C239.323 467.945 223.768 479.156 221.089 495.664C218.41 512.173 229.62 527.727 246.129 530.407C262.637 533.086 278.192 521.875 280.871 505.367Z" fill="#006FEE"/>
<path d="M256.377 521.325H245.956C240.29 521.325 235.681 516.715 235.681 511.049V500.149C235.681 499.909 235.875 499.715 236.115 499.715H266.219C266.459 499.715 266.653 499.909 266.653 500.149V511.049C266.653 516.715 262.043 521.325 256.377 521.325ZM236.548 500.583V511.049C236.548 516.237 240.768 520.457 245.956 520.457H256.377C261.565 520.457 265.785 516.237 265.785 511.049V500.583H236.548Z" fill="#CCE3FD"/>
<path d="M262.514 498.862C262.274 498.862 262.08 498.668 262.08 498.428V490.149C262.08 484.866 257.782 480.568 252.498 480.568H249.372C244.088 480.568 239.79 484.866 239.79 490.149V498.428C239.79 498.668 239.595 498.862 239.356 498.862C239.116 498.862 238.922 498.668 238.922 498.428V490.149C238.922 484.387 243.61 479.7 249.371 479.7H252.498C258.259 479.7 262.947 484.387 262.947 490.149V498.428C262.947 498.668 262.753 498.862 262.514 498.862Z" fill="#CCE3FD"/>
<path d="M259.926 498.862C259.686 498.862 259.492 498.668 259.492 498.428V491.329C259.492 486.832 256.198 483.173 252.149 483.173H249.721C245.672 483.173 242.378 486.832 242.378 491.329V498.428C242.378 498.668 242.184 498.862 241.944 498.862C241.704 498.862 241.51 498.668 241.51 498.428V491.329C241.51 486.353 245.193 482.306 249.721 482.306H252.148C256.676 482.306 260.359 486.354 260.359 491.329V498.428C260.36 498.668 260.165 498.862 259.926 498.862Z" fill="#CCE3FD"/>
<path d="M251.294 516.793C250.271 516.793 249.439 515.961 249.439 514.938V510.637C247.962 509.858 247.136 508.261 247.367 506.576C247.608 504.818 249.064 503.396 250.83 503.195C251.96 503.065 253.092 503.422 253.934 504.174C254.776 504.926 255.259 506.005 255.259 507.133C255.259 508.607 254.44 509.952 253.149 510.636V514.938C253.149 515.961 252.317 516.793 251.294 516.793ZM251.299 504.035C251.176 504.035 251.052 504.042 250.928 504.056C249.551 504.214 248.415 505.322 248.227 506.693C248.036 508.088 248.768 509.403 250.048 509.968C250.206 510.037 250.307 510.193 250.307 510.365V514.938C250.307 515.482 250.75 515.926 251.294 515.926C251.839 515.926 252.282 515.482 252.282 514.938V510.365C252.282 510.193 252.384 510.037 252.541 509.968C253.666 509.472 254.393 508.36 254.393 507.133C254.393 506.251 254.015 505.409 253.357 504.821C252.781 504.308 252.061 504.035 251.299 504.035Z" fill="#CCE3FD"/>
<path d="M830.863 728.183C793.21 717.799 779.581 602.43 817.801 574.654C835.384 561.875 858.856 571.331 868.842 555.129C879.661 537.574 856.91 518.672 866.071 494.719C874.512 472.647 907.241 453.627 929.695 464.979C947.129 473.793 955.675 499.555 949.181 517.922C939.721 544.678 903.616 540.836 895.859 565.388C889.258 586.282 912.491 598.281 915.758 626.147C921.45 674.715 862.431 736.89 830.863 728.183Z" fill="#006FEE"/>
<path d="M804.096 677.493C802.589 671.644 801.465 665.691 800.668 659.692C800.454 658.194 800.302 656.688 800.126 655.184C800.044 654.432 799.981 653.678 799.908 652.924C799.837 652.17 799.763 651.416 799.713 650.661C799.47 647.64 799.352 644.611 799.269 641.58C799.151 635.516 799.365 629.437 800.008 623.386C800.328 620.361 800.724 617.339 801.289 614.34L801.493 613.215L801.727 612.094C801.887 611.348 802.033 610.599 802.204 609.855L802.741 607.626C802.913 606.881 803.137 606.148 803.333 605.408C804.162 602.461 805.104 599.535 806.279 596.684C807.446 593.831 808.829 591.052 810.456 588.398C812.086 585.749 813.981 583.23 816.205 580.984C817.306 579.851 818.52 578.82 819.786 577.854C821.074 576.918 822.416 576.038 823.836 575.327C826.662 573.868 829.675 572.876 832.698 572.199C834.21 571.856 835.727 571.579 837.243 571.363C838.758 571.131 840.271 570.966 841.778 570.814C847.802 570.184 853.743 569.904 859.555 568.44L859.793 569.116C857.012 570.39 854.039 571.218 851.07 571.886C849.581 572.211 848.087 572.487 846.597 572.758C845.108 573.031 843.619 573.251 842.143 573.507C839.191 574.02 836.266 574.523 833.439 575.263C832.023 575.625 830.632 576.041 829.281 576.539C827.921 577.017 826.611 577.596 825.347 578.249C820.264 580.806 816.248 585.158 813.187 590.089C810.128 595.045 807.903 600.562 806.248 606.24C806.05 606.953 805.823 607.658 805.646 608.379L805.096 610.534C804.92 611.254 804.768 611.982 804.603 612.706L804.361 613.793L804.147 614.887C803.85 616.343 803.6 617.81 803.348 619.276C803.226 620.011 803.126 620.749 803.014 621.485C802.898 622.221 802.801 622.959 802.714 623.699C801.953 629.614 801.621 635.588 801.532 641.569C801.455 653.531 802.517 665.532 804.796 677.336L804.096 677.493Z" fill="#E6F1FE"/>
<path d="M932.489 472.819C933.826 473.883 935.073 475.061 936.227 476.325C937.374 477.596 938.428 478.95 939.39 480.366C941.313 483.201 942.876 486.28 944.077 489.493C946.444 495.923 947.47 502.919 946.614 509.813C946.389 511.533 946.058 513.244 945.578 514.921C945.317 515.754 945.065 516.589 944.722 517.398L944.24 518.62L943.66 519.802C942.903 521.388 941.917 522.853 940.878 524.266C940.605 524.609 940.318 524.941 940.039 525.278C939.755 525.612 939.485 525.96 939.172 526.266C938.564 526.894 937.97 527.539 937.307 528.105C934.725 530.455 931.838 532.395 928.865 534.088C925.893 535.791 922.843 537.295 919.805 538.767C916.768 540.243 913.746 541.704 910.824 543.313C907.909 544.926 905.09 546.688 902.514 548.737C899.941 550.784 897.628 553.139 895.759 555.815C893.887 558.486 892.451 561.46 891.486 564.594C890.515 567.724 890.078 571.003 890.227 574.274C890.368 577.548 891.117 580.79 892.229 583.913C893.334 587.045 894.84 590.046 896.441 592.997C897.241 594.475 898.084 595.933 898.921 597.398L901.416 601.808L900.797 602.171C899.016 599.307 897.193 596.47 895.471 593.547C893.757 590.625 892.121 587.624 890.871 584.424C889.617 581.232 888.762 577.84 888.523 574.371C888.27 570.903 888.69 567.386 889.66 564.054C890.628 560.724 892.084 557.513 894.062 554.64C896.029 551.759 898.471 549.227 901.154 547.047C903.837 544.858 906.756 543.015 909.74 541.357C912.726 539.699 915.779 538.211 918.808 536.726C921.833 535.236 924.848 533.766 927.74 532.125C930.635 530.491 933.389 528.648 935.81 526.46C936.435 525.931 936.986 525.334 937.561 524.759C937.857 524.479 938.106 524.159 938.373 523.854C938.635 523.545 938.904 523.241 939.161 522.928C940.13 521.634 941.057 520.299 941.77 518.843L942.319 517.76L942.777 516.632C943.104 515.89 943.347 515.111 943.601 514.337C944.062 512.772 944.411 511.17 944.654 509.547C945.123 506.298 945.142 502.974 944.784 499.689C944.624 498.042 944.328 496.411 943.986 494.79C943.627 493.172 943.169 491.576 942.648 489.999C941.591 486.854 940.193 483.814 938.426 480.996C937.543 479.587 936.568 478.234 935.499 476.959C934.437 475.678 933.281 474.472 932.029 473.37L932.489 472.819Z" fill="#E6F1FE"/>
<path opacity="0.57" d="M909.693 497.51C902.368 515.16 895.144 532.835 888.075 550.563C880.979 568.28 874.148 586.094 867.48 603.964C864.165 612.907 860.992 621.899 857.815 630.89C856.268 635.399 854.697 639.901 853.211 644.431C851.671 648.944 850.209 653.48 848.725 658.012L846.579 664.833C845.85 667.103 845.152 669.382 844.457 671.663C843.769 673.945 843.039 676.216 842.388 678.509L840.373 685.372C837.743 694.541 835.282 703.758 832.953 713.024L832.953 713.026C832.905 713.218 832.709 713.335 832.517 713.286C832.334 713.24 832.22 713.061 832.251 712.877C833.864 703.446 835.866 694.082 838.066 684.764C839.199 680.114 840.363 675.469 841.609 670.848C842.801 666.21 844.146 661.616 845.453 657.011C850.793 638.622 856.884 620.461 863.444 602.482C865.1 597.993 866.734 593.495 868.461 589.033C870.153 584.557 871.908 580.107 873.67 575.659L876.348 569.002L879.084 562.369L881.849 555.749C882.769 553.541 883.708 551.341 884.662 549.148L887.531 542.572L890.431 536.011C892.386 531.646 894.391 527.304 896.398 522.963C900.463 514.305 904.597 505.68 909.044 497.204C909.136 497.028 909.353 496.96 909.529 497.052C909.695 497.139 909.764 497.337 909.694 497.507L909.693 497.51Z" fill="#001731"/>
<path d="M164.801 505.081C164.801 505.081 155.732 508.104 149.857 521.061C148.251 524.603 139.529 525.232 138.628 532.498C138.164 536.25 135.387 539.255 131.651 539.828C122.343 541.254 108 546.087 105.706 562.246C103.954 574.58 110.242 579.257 116.84 580.876C121.687 582.065 124.908 586.779 123.928 591.672C122.988 596.365 124.39 601.79 132.52 606.081C150.74 615.695 168.936 583.304 168.936 583.304L172.666 526.747L164.801 505.081Z" fill="#001731"/>
<path d="M223.353 503.326C223.353 503.326 200.656 539.226 173.667 546.161C173.667 546.161 178.926 561.14 182.985 562.854C182.985 562.854 216.19 535.148 224.723 508.428L223.353 503.326Z" fill="#99C7FB"/>
<path d="M114.774 732.945L114.038 738.992C113.899 740.14 112.995 741.046 111.847 741.178C109.908 741.399 106.797 741.626 103.754 741.304C102.417 741.163 101.55 739.81 101.957 738.529C102.699 736.195 104.057 732.691 106.014 730.628H112.722C113.962 730.628 114.923 731.713 114.774 732.945Z" fill="#001731"/>
<path d="M167.316 662.104L168.448 668.765C168.448 668.765 164.656 707.172 163.981 722.535C163.876 724.943 164.499 727.323 165.763 729.376L172.356 740.083L155.6 730.195L155.266 728.15L158.009 724.379L154.416 681.353C154.205 678.825 154.727 676.291 155.918 674.052L159.384 667.541L167.316 662.104Z" fill="#99C7FB"/>
<path d="M173.46 741.634H168.113C167.112 741.634 166.168 741.175 165.558 740.381C163.891 738.215 160.437 733.989 158.785 733.879C156.562 733.731 156.847 741.634 156.847 741.634H155.601L154.022 731.813C153.625 729.342 154.854 726.894 157.073 725.737C157.073 725.737 157.581 729.495 160.337 731.158C163.092 732.82 171.55 738.773 171.55 738.773C171.55 738.773 172.586 738.625 173.724 738.831C175.41 739.135 175.174 741.634 173.46 741.634Z" fill="#001731"/>
<path d="M144.365 665.268C144.365 665.268 122.152 707.404 118.621 717.024C115.09 726.644 113.852 734.67 113.805 735.43C113.731 736.618 112.254 737.757 108.183 737.757C106.082 737.757 105.052 736.915 104.549 736.099C104.119 735.404 104.096 734.534 104.458 733.8C105.743 731.2 109.821 722.889 111.331 719.121C113.134 714.62 117.013 694.226 119.14 687.136C121.267 680.045 123.671 672.353 132.934 665.268C132.934 665.268 139.293 659.04 144.365 665.268Z" fill="#99C7FB"/>
<path d="M158.397 596.226C164.127 571.946 149.611 558.213 149.611 558.213C158.771 549.421 175.458 545.421 175.458 545.421C175.458 545.421 191.382 557.062 189.493 566.175C188.385 571.515 178.3 598.164 178.3 598.164C178.3 598.164 168.974 602.578 158.397 596.226Z" fill="#338EF7"/>
<path d="M145.693 608.246C148.025 601.221 158.397 596.226 158.397 596.226C168.974 602.578 178.3 598.165 178.3 598.165C178.3 598.165 180.392 606.159 178.948 613.588C177.505 621.018 168.448 668.765 168.448 668.765C154.177 671.656 132.23 665.856 132.23 665.856C141.32 649.717 143.361 615.271 145.693 608.246Z" fill="#001731"/>
<path d="M165.049 529.375L160.39 550.301C159.944 552.144 161.624 551.842 163.488 551.491C166.539 550.916 170.473 549.731 171.788 547.356C171.921 547.114 171.988 546.841 172.026 546.568L174.028 532.057C174.186 530.906 173.564 529.789 172.502 529.318L168.64 527.606C167.152 526.946 165.431 527.794 165.049 529.375Z" fill="#99C7FB"/>
<path d="M173.972 510.3C173.972 510.3 178.931 513.657 181.062 522.206C183.193 530.756 179.73 533.823 176.18 533.635C172.63 533.447 167.483 532.349 163.022 526.215C158.563 520.082 167.472 506.197 173.972 510.3Z" fill="#99C7FB"/>
<path d="M167.52 522.767C167.52 522.767 165.703 510.516 175.874 512.39L177.931 514.531C177.931 514.531 182.909 508.924 177.4 504.686C171.89 500.448 164.245 501.534 160.015 509.249C155.785 516.965 154.25 522.387 157.795 527.181C161.341 531.976 164.007 527.864 164.007 527.864C164.007 527.864 162.382 523.714 163.731 521.933C165.08 520.153 166.82 522.969 166.82 522.969L167.52 522.767Z" fill="#001731"/>
<path d="M166.13 523.817C166.13 523.817 165.233 517.514 162.013 519.316C158.794 521.118 163.173 525.204 164.929 526.594L166.13 523.817Z" fill="#99C7FB"/>
<path d="M223.198 510.717C223.266 511.457 220.512 511.969 219.636 508.812C219.877 507.442 220.305 501.439 221.356 500.507C226.953 495.541 236.934 489.954 236.934 489.954C238.05 491.658 236.586 492.78 236.586 492.78L231.604 496.143C232.124 497.864 232.882 499.386 232.968 501.351C233.033 502.839 232.483 504.297 231.495 505.425C230.504 506.558 229.169 508.021 227.966 509.131C225.689 511.234 223.198 510.717 223.198 510.717Z" fill="#99C7FB"/>
<path d="M225.896 508.265L225.153 507.961C225.254 507.714 227.645 501.905 228.799 500.699C229.24 500.238 229.454 499.842 229.434 499.523C229.423 499.347 229.336 499.174 229.17 498.998L225.129 501.158L223.347 503.949L222.67 503.516L224.565 500.549L229.279 498.029L229.486 498.198C229.962 498.586 230.207 499.003 230.236 499.473C230.27 500.033 229.99 500.616 229.38 501.254C228.508 502.166 226.569 506.625 225.896 508.265Z" fill="#99C7FB"/>
<path d="M149.611 558.213C149.611 558.213 123.821 611.165 114.482 615.794C114.482 615.794 104.999 616.784 99.1952 618.54C97.7354 618.982 97.7839 621.055 99.2558 621.456C103.297 622.558 109.994 623.48 116.13 620.148C116.13 620.148 112.834 625.089 114.756 627.014C114.756 627.014 119.152 621.796 120.8 620.148C122.251 618.697 148.661 589.904 159.765 572.539C160.662 571.136 160.04 566.967 159.416 565.422C157.982 561.868 154.8 556.194 149.611 558.213Z" fill="#99C7FB"/>
<path d="M169.145 505.764C166.963 506.482 165.014 507.793 163.244 509.24C161.469 510.697 159.931 512.429 158.633 514.312C157.337 516.198 156.293 518.257 155.569 520.424C155.207 521.508 154.921 522.61 154.709 523.737C154.494 524.866 154.313 526.023 153.964 527.163C153.624 528.297 153.066 529.432 152.206 530.308C151.364 531.195 150.332 531.834 149.302 532.39C148.268 532.944 147.216 533.424 146.229 533.981C145.238 534.529 144.336 535.196 143.531 535.98C141.919 537.546 140.756 539.54 140.167 541.715C139.854 542.809 139.614 543.953 139.198 545.079C138.794 546.199 138.142 547.318 137.173 548.107C136.22 548.909 135.074 549.39 133.935 549.72C132.79 550.047 131.634 550.24 130.496 550.437C128.227 550.798 126.021 551.391 123.918 552.277C119.748 554.038 115.927 556.989 113.877 561.051C112.86 563.064 112.376 565.353 112.668 567.588C112.971 569.807 113.947 571.988 115.612 573.504C116.438 574.261 117.418 574.856 118.495 575.168C119.575 575.474 120.73 575.514 121.844 575.327C124.065 574.981 126.197 573.561 127.036 571.417L127.224 571.487C126.405 573.732 124.217 575.265 121.907 575.678C120.748 575.899 119.535 575.886 118.38 575.587C117.223 575.281 116.162 574.668 115.268 573.885C113.467 572.299 112.418 570.007 112.067 567.67C111.727 565.308 112.213 562.866 113.253 560.746C114.289 558.611 115.817 556.744 117.612 555.22C119.406 553.687 121.452 552.478 123.609 551.551C125.766 550.63 128.058 550.006 130.355 549.631C131.494 549.43 132.623 549.234 133.703 548.92C134.777 548.604 135.807 548.158 136.627 547.459C137.457 546.77 138.026 545.832 138.41 544.785C138.803 543.741 139.046 542.615 139.373 541.487C140.002 539.198 141.258 537.059 142.977 535.41C143.831 534.583 144.809 533.867 145.846 533.301C146.876 532.726 147.934 532.25 148.94 531.715C149.943 531.18 150.905 530.582 151.663 529.789C152.44 529.013 152.951 528.021 153.289 526.951C153.633 525.881 153.827 524.748 154.06 523.609C154.289 522.466 154.6 521.328 154.985 520.224C155.758 518.011 156.852 515.92 158.203 514.012C159.572 512.12 161.179 510.396 163.015 508.959C164.846 507.532 166.842 506.254 169.085 505.573L169.145 505.764Z" fill="#006FEE"/>
<path d="M156.854 521.607C156.786 523.097 156.702 524.594 156.429 526.079C156.164 527.559 155.733 529.048 154.928 530.377C154.142 531.724 152.908 532.767 151.667 533.601C150.416 534.444 149.208 535.254 148.103 536.217C145.903 538.112 144.057 540.47 143.48 543.294C142.818 546.091 143.002 549.198 141.749 552.152C141.113 553.613 140.051 554.874 138.816 555.829C137.579 556.793 136.182 557.495 134.744 558.024C131.847 559.068 128.852 559.436 125.984 560.083C123.143 560.723 120.301 561.802 118.292 563.897C117.318 564.929 116.457 566.208 116.437 567.632C116.42 569.064 117.082 570.448 117.733 571.772L117.556 571.867C116.817 570.589 116.036 569.225 115.977 567.634C115.952 566.846 116.158 566.055 116.5 565.358C116.839 564.657 117.284 564.022 117.79 563.438C119.88 561.114 122.857 559.906 125.757 559.158C128.673 558.382 131.65 558.033 134.364 557.003C137.048 555.999 139.579 554.266 140.673 551.676C141.825 549.095 141.707 546.035 142.421 543.043C142.771 541.538 143.421 540.067 144.324 538.81C145.211 537.537 146.31 536.443 147.495 535.489C149.8 533.485 152.825 532.485 154.357 530.015C155.162 528.824 155.651 527.42 155.981 525.988C156.309 524.551 156.482 523.071 156.654 521.591L156.854 521.607Z" fill="#006FEE"/>
<path d="M909.76 604.816C909.76 604.816 927.555 614.674 929.028 631.358C930.5 648.042 929.15 717.29 893.466 734.333C857.782 751.377 810.549 747.449 792.469 745.586C774.389 743.723 764.364 731.435 762.125 722.975C759.885 714.515 756.268 682.999 775.288 672.834C794.308 662.668 814.285 647.093 834.246 631.928C854.207 616.762 888.416 592.007 909.76 604.816Z" fill="#001731"/>
<path d="M780.897 678.585C780.897 678.585 785.7 678.839 786.289 688.721C786.289 688.721 775.152 698.704 760.108 701.081C758.979 701.259 761.687 693.371 762.094 692.302C764.031 687.218 770.132 683.944 780.897 678.585Z" fill="#001731"/>
<path d="M834.988 666.967H824.852C824.852 666.967 793.744 632.611 773.341 629.145C773.341 629.145 759.139 647.274 774.098 681.148C775.301 683.872 778.667 685.083 781.177 683.48C781.928 683 782.467 682.357 782.794 681.552L781.592 652.629C781.592 652.629 808.127 675.837 812.739 680.316C817.352 684.794 840.796 682.064 834.988 666.967Z" fill="#E6F1FE"/>
<path d="M737.001 739.098C741.248 735.376 748.015 731.2 757.785 730.003L761.089 732.024C761.089 732.024 758.982 735.131 755.133 738.414C751.596 740.469 746.134 743.251 741.605 743.854C737.203 744.441 736.554 741.78 737.001 739.098Z" fill="#001731"/>
<path d="M762.094 692.302C764.71 693.149 765.861 696.856 772.501 694.405C778.924 692.033 783.699 688.974 786.156 687.211C786.211 687.689 786.257 688.188 786.289 688.72C786.289 688.72 774.546 699.889 759.502 702.266C758.373 702.445 757.478 701.317 757.885 700.249C758.615 698.331 759.932 695.424 762.094 692.302Z" fill="#006FEE"/>
<path d="M733.801 742.276C734.639 741.325 735.707 740.231 737.001 739.098C736.554 741.78 737.203 744.441 741.605 743.854C746.134 743.251 751.596 740.468 755.133 738.414C750.7 742.195 743.954 746.208 735.44 745.972C733.549 745.92 732.552 743.696 733.801 742.276Z" fill="#006FEE"/>
<path d="M834.617 674.3L787.154 674.814C787.154 674.814 760.049 697.239 755.133 731.434C755.133 731.434 754.317 733.949 759.216 734.379C759.216 734.379 775.604 723.676 786.289 704.753C799.39 681.551 825.346 691.996 825.346 691.996C833.875 685.847 845.926 684.595 855.005 682.546L834.617 674.3Z" fill="#E6F1FE"/>
<path d="M833.496 636.066C833.496 636.066 828.386 661.672 803.352 671.803L794.447 670.753L792.345 674.104L813.234 674.769C813.234 674.769 831.089 667.697 840.549 648.426C840.862 647.79 846.072 637.033 833.496 636.066Z" fill="#99C7FB"/>
<path d="M830.758 673.881C830.758 673.881 836.568 658.087 837.817 642.741C837.817 642.741 833.566 639.088 830.909 637.512C830.049 637.001 829.724 635.922 830.159 635.021C832.112 630.974 843.925 615.085 844.81 614.864C849.62 613.664 869.344 604.285 883.237 623.288C889.199 631.443 882.054 656.548 855.005 682.546L849.425 683.614L830.758 673.881Z" fill="#338EF7"/>
<path d="M853.147 646.202C853.147 646.202 837.004 665.316 816.365 668.11C816.365 668.11 811.031 663.247 807.065 664.983C803.099 666.719 797.66 674.382 797.66 674.382H824.16C824.16 674.382 849.217 673.499 861.738 658.305C860.73 652.988 857.714 649.813 853.147 646.202Z" fill="#99C7FB"/>
<path d="M862.564 601.458L866.096 613.238C866.258 613.778 866.058 614.363 865.593 614.681C863.892 615.846 859.448 618.162 853.351 615.911C852.654 615.653 852.176 615.002 852.115 614.261L851.278 603.998L862.564 601.458Z" fill="#99C7FB"/>
<path d="M841.881 591.918C841.881 591.918 843.618 604.129 848.309 607.884C853 611.64 862.139 608.812 865.226 599.606L859.076 583.865L841.881 591.918Z" fill="#99C7FB"/>
<path d="M859.769 594.052C859.412 594.167 859.038 593.938 858.982 593.567C858.813 592.44 858.39 590.209 857.535 588.69C857.535 588.69 857.982 587.088 853.486 589.508C848.989 591.928 842.235 595.484 838.259 593.367C834.382 591.302 830.455 580.914 840.701 582.839C841.091 582.912 841.449 582.602 841.42 582.206C841.294 580.499 841.464 576.571 845.441 575.31C849.163 574.13 851.201 575.811 852.041 576.825C852.288 577.123 852.746 577.117 852.982 576.81C854.097 575.354 857.125 572.256 861.582 574.22C865.254 575.838 865.825 578.1 865.765 579.509C865.745 579.966 866.208 580.275 866.624 580.084C867.748 579.566 869.557 579.297 871.289 581.468C873.685 584.469 870.262 587.072 869.235 587.754C869.066 587.866 868.962 588.051 868.961 588.253C868.951 589.814 868.708 596.622 865.296 600.462C865.001 600.795 864.454 600.697 864.282 600.287L861.655 594.027C861.533 593.737 861.209 593.588 860.908 593.684L859.769 594.052Z" fill="#001731"/>
<path d="M859.713 595.323C859.713 595.323 861.317 588.788 863.754 590.91C866.192 593.031 863.119 597.701 860.327 598.591L859.713 595.323Z" fill="#99C7FB"/>
<path d="M798.994 675.866L787.095 636.186C786.61 634.567 785.172 633.418 783.486 633.303L767.421 632.204C765.788 632.092 764.574 633.687 765.116 635.232L778.417 673.126C778.846 674.346 779.942 675.209 781.229 675.34L797.048 677.096L798.994 675.866Z" fill="#001731"/>
<path d="M777.05 649.634C777.939 651.427 779.473 652.478 780.477 651.98C781.481 651.483 781.574 649.626 780.686 647.833C779.798 646.04 778.264 644.989 777.26 645.487C776.256 645.984 776.162 647.841 777.05 649.634Z" fill="#006FEE"/>
<path d="M797.048 677.096C797.074 677.096 797.1 677.095 797.126 677.094L830.834 675.39C831.667 675.348 832.308 674.639 832.266 673.805C832.224 672.972 831.512 672.317 830.681 672.373L796.974 674.077C796.141 674.119 795.499 674.828 795.541 675.661C795.582 676.469 796.249 677.096 797.048 677.096Z" fill="#001731"/>
<path d="M837.817 643.143C837.595 643.143 837.416 642.964 837.415 642.743C837.392 635.603 840.137 626.162 840.164 626.068C840.227 625.855 840.449 625.736 840.662 625.795C840.875 625.857 840.997 626.081 840.935 626.294C840.908 626.387 838.195 635.718 838.218 642.739C838.219 642.961 838.04 643.142 837.818 643.143H837.817Z" fill="#004493"/>
<path d="M853.146 646.603C853.059 646.603 852.971 646.575 852.897 646.516C852.723 646.379 852.694 646.127 852.831 645.952C852.905 645.859 860.216 636.565 862.715 630.233C862.796 630.027 863.031 629.923 863.236 630.007C863.442 630.089 863.543 630.322 863.462 630.528C860.92 636.97 853.765 646.066 853.462 646.45C853.383 646.55 853.265 646.603 853.146 646.603Z" fill="#004493"/>
<path d="M863.474 660.965L862.062 658.969C861.934 658.788 861.977 658.537 862.158 658.409C862.339 658.281 862.59 658.324 862.718 658.505L863.753 659.969C874.025 655.389 880.379 643.105 880.442 642.98C880.543 642.783 880.783 642.702 880.983 642.805C881.181 642.906 881.259 643.148 881.158 643.346C881.093 643.474 874.483 656.251 863.772 660.838L863.474 660.965Z" fill="#004493"/>
</svg>
